<svg id="Layer_1" data-name="Layer 1" xmlns="http://www.w3.org/2000/svg" viewBox="0 0 1018.7 511.99"><defs><style>.cls-1{fill:#dc7633;}.cls-2,.cls-3,.cls-4{fill:#2e4053;}.cls-3{font-size:63.85px;font-family:Mylodon-Light, Mylodon;}.cls-4{font-size:48px;font-family:Anurati-Regular, Anurati;}.cls-5{letter-spacing:-0.23em;}.cls-6{letter-spacing:0em;}.cls-7{letter-spacing:0em;}.cls-8{letter-spacing:0.25em;}</style></defs><title>logo1</title><path class="cls-1" d="M285.82,672.19a17.64,17.64,0,1,0,10.81-1.06L254.2,622.06V465.72L403,316.89a4.43,4.43,0,0,0,1.3-3.13V228.62a17.63,17.63,0,1,0-8.87,0v83.3L246.63,460.74a4.44,4.44,0,0,0-1.3,3.14V623.72a4.42,4.42,0,0,0,1.08,2.89Zm7,7.38a8.76,8.76,0,1,1-8.76,8.77A8.78,8.78,0,0,1,292.87,679.57Zm98.24-468a8.77,8.77,0,1,1,8.76,8.77A8.77,8.77,0,0,1,391.11,211.61Z" transform="translate(-245.32 -193.98)"/><path class="cls-1" d="M327.22,671.53l-43.39-50.17V465L432.65,316.19a4.44,4.44,0,0,0,1.3-3.13V225.51a4.44,4.44,0,1,0-8.87,0v85.72L276.26,460a4.42,4.42,0,0,0-1.3,3.13V623a4.5,4.5,0,0,0,1.08,2.91l44.47,51.41a4.43,4.43,0,1,0,6.71-5.8Z" transform="translate(-245.32 -193.98)"/><path class="cls-1" d="M473.82,325.89,323.71,476a4.44,4.44,0,0,0,6.27,6.27l148.8-148.82H582.95a17.64,17.64,0,1,0,0-8.87H477A4.47,4.47,0,0,0,473.82,325.89ZM600,320.27a8.77,8.77,0,1,1-8.77,8.76A8.78,8.78,0,0,1,600,320.27Z" transform="translate(-245.32 -193.98)"/><path class="cls-2" d="M652.76,355.13a4.44,4.44,0,0,0-4.44-4.44H482.92a4.41,4.41,0,0,0-3.14,1.31L353,478.78a17.66,17.66,0,1,0,10.5,2.05L484.75,359.57H648.31A4.46,4.46,0,0,0,652.76,355.13ZM363.82,496.21a8.76,8.76,0,1,1-8.76-8.77A8.78,8.78,0,0,1,363.82,496.21Z" transform="translate(-245.32 -193.98)"/><path class="cls-1" d="M600,386.55a17.63,17.63,0,1,0,0-8.87H493.77a4.49,4.49,0,0,0-3.13,1.3l-77.53,77.08a17.65,17.65,0,1,0,9.94,2.62l72.54-72.13H600Zm17-13.2a8.77,8.77,0,1,1-8.77,8.76A8.78,8.78,0,0,1,617,373.36ZM413.79,482.41a8.77,8.77,0,1,1,8.76-8.77A8.78,8.78,0,0,1,413.79,482.41Z" transform="translate(-245.32 -193.98)"/><path class="cls-2" d="M361.09,705.28a17.64,17.64,0,1,0-6.58-34l-43.19-49.94V465L460.13,316.19a4.44,4.44,0,0,0,1.3-3.13V225.51a4.44,4.44,0,1,0-8.87,0v85.72L303.76,460a4.41,4.41,0,0,0-1.3,3.13V623a4.44,4.44,0,0,0,1.08,2.91l43.88,50.72a17.47,17.47,0,0,0-4,11A17.65,17.65,0,0,0,361.09,705.28Zm0-26.41a8.76,8.76,0,1,1-8.76,8.77A8.78,8.78,0,0,1,361.09,678.87Z" transform="translate(-245.32 -193.98)"/><text class="cls-3" transform="matrix(0.94, 0, -0.34, 0.94, 250.26, 283.88)">PURDUE ENGINEERS</text><text class="cls-4" transform="matrix(0.94, 0, -0.34, 0.94, 141.22, 353.02)">F<tspan class="cls-5" x="30.58" y="0"> </tspan><tspan x="31.64" y="0">U</tspan><tspan class="cls-5" x="69.18" y="0"> </tspan><tspan x="70.24" y="0">T</tspan><tspan class="cls-5" x="94.72" y="0"> </tspan><tspan class="cls-6" x="95.78" y="0">U</tspan><tspan class="cls-5" x="133.32" y="0"> </tspan><tspan class="cls-7" x="134.38" y="0">R</tspan><tspan class="cls-5" x="170.91" y="0"> </tspan><tspan class="cls-6" x="171.98" y="0">E</tspan><tspan class="cls-8" x="202.5" y="0"> </tspan><tspan x="226.5" y="0">M</tspan><tspan class="cls-5" x="272.29" y="0"> </tspan><tspan x="273.36" y="0">A</tspan><tspan class="cls-5" x="316.51" y="0"> </tspan><tspan x="317.57" y="0">K</tspan><tspan class="cls-5" x="351.41" y="0"> </tspan><tspan x="352.48" y="0">E</tspan><tspan class="cls-5" x="383.01" y="0"> </tspan><tspan x="384.07" y="0">R</tspan><tspan class="cls-5" x="420.6" y="0"> </tspan><tspan x="421.66" y="0">S</tspan></text></svg>